<?xml version="1.0" encoding="utf-8"?>
<!-- Generator: Adobe Illustrator 26.3.0, SVG Export Plug-In . SVG Version: 6.00 Build 0)  -->
<svg version="1.1" id="exVYo4bsF9M1" shape-rendering="geometricPrecision" text-rendering="geometricPrecision"
	 xmlns="http://www.w3.org/2000/svg" xmlns:xlink="http://www.w3.org/1999/xlink" x="0px" y="0px" viewBox="0 0 105.7 67.1"
	 style="enable-background:new 0 0 105.7 67.1;" xml:space="preserve">
<style type="text/css">
	.st0{enable-background:new    ;}
	.st1{fill:#FFFFFF;}
	.st2{fill:none;stroke:#FFFFFF;stroke-width:4;stroke-linecap:round;}
</style>
<g class="st0">
	<path class="st1" d="M38.4,43.3H39V21c0-0.6,0-1.1,0.1-1.6c0.1-0.5,0.2-1,0.5-1.3c0.2-0.4,0.6-0.7,1.1-0.9c0.5-0.2,1.1-0.3,1.9-0.3
		c0.9,0,1.6,0.1,2.2,0.3c0.5,0.2,0.9,0.5,1.2,0.9s0.4,0.8,0.5,1.3c0.1,0.5,0.1,1.1,0.1,1.6v27.2c0,0.8,0,1.5-0.1,2.3
		c0,0.7-0.2,1.4-0.4,2c-0.2,0.6-0.6,1-1.2,1.4c-0.5,0.3-1.3,0.5-2.3,0.5h-3.5c-0.8,0-1.5-0.2-2.1-0.5c-0.6-0.3-1-0.7-1.4-1.2
		s-0.7-1-0.9-1.5c-0.2-0.5-0.4-1-0.5-1.3l-8.1-22h-0.6v22.3c0,0.6,0,1.1-0.1,1.6c-0.1,0.5-0.2,1-0.5,1.3c-0.2,0.4-0.6,0.7-1.1,0.9
		c-0.5,0.2-1.1,0.3-1.9,0.3c-0.9,0-1.7-0.1-2.2-0.3c-0.5-0.2-0.9-0.5-1.2-0.9s-0.4-0.8-0.5-1.3c-0.1-0.5-0.1-1.1-0.1-1.6V23
		c0-0.8,0-1.5,0.1-2.3c0-0.7,0.2-1.4,0.4-2c0.3-0.6,0.6-1,1.2-1.4c0.5-0.3,1.3-0.5,2.3-0.5h3.5c0.9,0,1.6,0.2,2.2,0.5
		c0.6,0.3,1,0.7,1.4,1.1c0.4,0.5,0.7,1,0.9,1.7L38.4,43.3z"/>
	<path class="st1" d="M72.9,17c0.5,0,1,0.1,1.4,0.3c0.4,0.2,0.8,0.4,1.2,0.7c0.3,0.3,0.6,0.7,0.9,1.1c0.3,0.4,0.4,0.9,0.5,1.4
		l4.6,21.4h0.9c0.8-3.5,1.5-7.1,2.3-10.7c0.8-3.6,1.6-7.2,2.4-10.7c0.2-0.7,0.4-1.3,0.7-1.9c0.3-0.5,0.7-0.9,1.2-1.3
		c0.5-0.4,1.2-0.6,2-0.6c0.6,0,1.2,0.1,1.7,0.3c0.5,0.2,0.9,0.5,1.2,0.9c0.3,0.3,0.5,0.7,0.7,1.1c0.2,0.4,0.2,0.8,0.2,1.2
		c0,0.2,0,0.4,0,0.6c0,0.2,0,0.4-0.1,0.5c0,0.2-0.1,0.3-0.1,0.5l-7.4,29.2c-0.3,0.6-0.6,1.1-1.1,1.6c-0.4,0.4-0.9,0.8-1.5,1.1
		c-0.6,0.3-1.3,0.5-2.2,0.5h-0.9c-0.9,0-1.6-0.2-2.2-0.5c-0.6-0.3-1-0.7-1.4-1.1c-0.4-0.5-0.7-1-0.9-1.6l-3.8-15.7h-0.9
		c-0.6,2.5-1.2,5.2-1.8,7.9c-0.7,2.7-1.3,5.3-1.9,7.9c-0.2,0.6-0.5,1.1-0.9,1.6c-0.4,0.4-0.8,0.8-1.4,1.1c-0.6,0.3-1.3,0.5-2.2,0.5
		h-0.9c-0.9,0-1.7-0.2-2.3-0.5c-0.6-0.3-1.1-0.7-1.5-1.1c-0.5-0.5-0.8-1-1.1-1.6L51.2,22c0-0.1-0.1-0.3-0.1-0.5
		c0-0.1-0.1-0.3-0.1-0.5c0-0.2,0-0.4,0-0.6c0-0.4,0.1-0.8,0.2-1.2c0.2-0.4,0.4-0.8,0.7-1.1c0.3-0.3,0.7-0.6,1.2-0.9
		c0.5-0.2,1-0.3,1.7-0.3c0.8,0,1.5,0.2,2,0.6c0.5,0.4,0.9,0.8,1.2,1.3c0.3,0.6,0.6,1.2,0.7,1.9l4.7,21.4h0.9
		c0.3-1.6,0.7-3.4,1.1-5.2c0.4-1.8,0.8-3.7,1.2-5.5c0.4-1.9,0.8-3.7,1.2-5.5c0.4-1.8,0.8-3.6,1.2-5.2c0.3-1,0.7-1.9,1.5-2.5
		C71,17.3,71.9,17,72.9,17z"/>
</g>
<path class="st2" d="M8.5,58.7c0-0.4-2.7-70.7,27.1-47.2s65.1,71.1,62.5,34.9"/>
</svg>
